# Blender 4.2.2 LTS
# www.blender.org
mtllib blb.mtl
o blb
v -0.500000 0.000000 0.500000
v -0.500000 2.000000 0.500000
v -0.500000 0.000000 -0.500000
v -0.500000 2.000000 -0.500000
v 0.500000 0.000000 0.500000
v 0.500000 2.000000 0.500000
v 0.500000 0.000000 -0.500000
v 0.500000 2.000000 -0.500000
v -0.500000 0.000000 2.500000
v -0.500000 2.000000 2.500000
v 0.500000 2.000000 2.500000
v 0.500000 0.000000 2.500000
v -0.500000 0.000000 3.500000
v -0.500000 2.000000 3.500000
v 0.500000 2.000000 3.500000
v 0.500000 0.000000 3.500000
v -2.500000 0.000000 -0.500000
v -2.500000 0.000000 0.500000
v -2.500000 2.000000 0.500000
v -2.500000 2.000000 -0.500000
v -2.500000 0.000000 3.500000
v -2.500000 2.000000 3.500000
v -3.500000 0.000000 -0.500000
v -3.500000 0.000000 0.500000
v -3.500000 2.000000 0.500000
v -3.500000 2.000000 -0.500000
v -3.500000 0.000000 2.500000
v -3.500000 2.000000 2.500000
v -3.500000 0.000000 3.500000
v -3.500000 2.000000 3.500000
v -5.500000 0.000000 -0.500000
v -5.500000 0.000000 0.500000
v -5.500000 2.000000 0.500000
v -5.500000 2.000000 -0.500000
v -5.500000 2.000000 2.500000
v -5.500000 0.000000 3.500000
v -5.500000 2.000000 3.500000
v -6.500000 0.000000 -0.500000
v -6.500000 0.000000 0.500000
v -6.500000 2.000000 0.500000
v -6.500000 2.000000 -0.500000
v -6.500000 0.000000 2.500000
v -6.500000 2.000000 2.500000
v -6.500000 0.000000 3.500000
v -6.500000 2.000000 3.500000
v -2.500000 0.000000 2.500000
v -2.500000 2.000000 2.500000
v -5.500000 0.000000 2.500000
vn -0.0000 -1.0000 -0.0000
vn -0.0000 -0.0000 -1.0000
vn 1.0000 -0.0000 -0.0000
vn -0.0000 1.0000 -0.0000
vn -1.0000 -0.0000 -0.0000
vn -0.0000 -0.0000 1.0000
vt 0.125000 0.500000
vt 0.125000 0.750000
vt 0.375000 0.250000
vt 0.625000 0.250000
vt 0.625000 0.500000
vt 0.375000 0.500000
vt 0.625000 0.750000
vt 0.375000 0.750000
vt 0.875000 0.750000
vt 0.875000 0.500000
vt 0.625000 0.000000
vt 0.375000 0.000000
vt 0.625000 1.000000
vt 0.375000 1.000000
s 0
f 3/1/1 1/2/1 18/2/1 17/1/1
f 3/3/2 4/4/2 8/5/2 7/6/2
f 7/6/3 8/5/3 6/7/3 5/8/3
f 6/7/4 2/9/4 10/9/4 11/7/4
f 3/1/1 7/6/1 5/8/1 1/2/1
f 8/5/4 4/10/4 2/9/4 6/7/4
f 12/8/3 11/7/3 15/7/3 16/8/3
f 5/8/3 6/7/3 11/7/3 12/8/3
f 2/11/5 1/12/5 9/12/5 10/11/5
f 1/2/1 5/8/1 12/8/1 9/2/1
f 16/8/6 15/7/6 14/13/6 13/14/6
f 9/2/1 12/8/1 16/8/1 13/2/1
f 2/9/4 4/10/4 20/10/4 19/9/4
f 11/7/4 10/9/4 14/9/4 15/7/4
f 21/14/6 22/13/6 30/13/6 29/14/6
f 22/9/4 47/9/4 28/9/4 30/9/4
f 13/14/6 14/13/6 22/13/6 21/14/6
f 14/9/4 10/9/4 47/9/4 22/9/4
f 4/4/2 3/3/2 17/3/2 20/4/2
f 10/11/2 9/12/2 46/12/2 47/11/2
f 1/12/6 2/11/6 19/11/6 18/12/6
f 9/2/1 13/2/1 21/2/1 46/2/1
f 23/1/1 24/2/1 32/2/1 31/1/1
f 25/9/4 26/10/4 34/10/4 33/9/4
f 20/4/2 17/3/2 23/3/2 26/4/2
f 33/9/4 40/9/4 43/9/4 35/9/4
f 46/2/1 21/2/1 29/2/1 27/2/1
f 19/9/4 20/10/4 26/10/4 25/9/4
f 17/1/1 18/2/1 24/2/1 23/1/1
f 48/2/1 36/2/1 44/2/1 42/2/1
f 30/9/4 28/9/4 35/9/4 37/9/4
f 29/14/6 30/13/6 37/13/6 36/14/6
f 26/4/2 23/3/2 31/3/2 34/4/2
f 24/12/6 25/11/6 33/11/6 32/12/6
f 27/2/1 29/2/1 36/2/1 48/2/1
f 28/11/2 27/12/2 48/12/2 35/11/2
f 39/12/5 40/11/5 41/4/5 38/3/5
f 43/11/5 42/12/5 44/12/5 45/11/5
f 33/9/4 34/10/4 41/10/4 40/9/4
f 31/1/1 32/2/1 39/2/1 38/1/1
f 37/9/4 35/9/4 43/9/4 45/9/4
f 36/14/6 37/13/6 45/13/6 44/14/6
f 34/4/2 31/3/2 38/3/2 41/4/2
f 19/9/4 25/9/4 28/9/4 47/9/4
f 40/11/5 39/12/5 42/12/5 43/11/5
f 18/12/3 19/11/3 47/11/3 46/12/3
f 24/2/1 18/2/1 46/2/1 27/2/1
f 39/2/1 32/2/1 48/2/1 42/2/1
f 25/11/5 24/12/5 27/12/5 28/11/5
f 32/12/3 33/11/3 35/11/3 48/12/3
