# Blender 4.2.2 LTS
# www.blender.org
mtllib bruce.mtl
o Cube
v -0.500000 1.000000 0.500000
v -0.500000 0.000000 0.500000
v -0.500000 1.000000 -0.500000
v -0.500000 0.000000 -0.500000
v 0.500000 1.000000 0.500000
v 0.500000 0.000000 0.500000
v 0.500000 1.000000 -0.500000
v 0.500000 0.000000 -0.500000
v -4.500000 1.000000 0.500001
v -4.500000 0.000000 0.500001
v -4.500000 1.000000 -0.499999
v -4.500000 0.000000 -0.499999
v -0.500000 0.000000 1.500000
v 0.500000 0.000000 1.500000
v -0.500000 1.000000 1.500000
v 0.500000 1.000000 1.500000
v -0.499999 0.000000 2.500000
v 0.500001 0.000000 2.500000
v -0.499999 1.000000 2.500000
v 0.500001 1.000000 2.500000
v -0.499999 0.000000 3.500000
v 0.500001 0.000000 3.500000
v -0.499999 1.000000 3.500000
v 0.500001 1.000000 3.500000
v -0.499999 0.000000 4.500000
v 0.500001 0.000000 4.500000
v -0.499999 1.000000 4.500000
v 0.500001 1.000000 4.500000
v -4.500000 1.000000 1.500001
v -4.500000 0.000000 1.500001
v -4.499999 1.000000 2.500001
v -4.499999 0.000000 2.500001
v -4.499999 1.000000 3.500001
v -4.499999 0.000000 3.500001
v -4.499999 1.000000 4.500001
v -4.499999 0.000000 4.500001
vn -0.0000 1.0000 -0.0000
vn -0.0000 -0.0000 -1.0000
vn 1.0000 -0.0000 -0.0000
vn -0.0000 -1.0000 -0.0000
vn -1.0000 -0.0000 -0.0000
vn -0.0000 -0.0000 1.0000
vt 0.625000 0.500000
vt 0.875000 0.500000
vt 0.875000 0.750000
vt 0.625000 0.750000
vt 0.375000 0.750000
vt 0.625000 1.000000
vt 0.375000 1.000000
vt 0.375000 0.000000
vt 0.625000 0.000000
vt 0.625000 0.250000
vt 0.375000 0.250000
vt 0.125000 0.500000
vt 0.375000 0.500000
vt 0.125000 0.750000
s 0
usemtl Material
f 1/1/1 5/2/1 7/3/1 3/4/1
f 4/5/2 3/4/2 7/6/2 8/7/2
f 8/8/3 7/9/3 5/10/3 6/11/3
f 6/12/4 2/13/4 4/5/4 8/14/4
f 3/4/2 4/5/2 12/5/2 11/4/2
f 1/1/5 2/13/5 13/13/5 15/1/5
f 10/13/5 9/1/5 11/4/5 12/5/5
f 2/13/6 1/1/6 9/1/6 10/13/6
f 4/5/4 2/13/4 10/13/4 12/5/4
f 1/1/1 3/4/1 11/4/1 9/1/1
f 14/11/3 16/10/3 20/10/3 18/11/3
f 6/11/3 5/10/3 16/10/3 14/11/3
f 2/13/4 6/12/4 14/12/4 13/13/4
f 5/2/1 1/1/1 15/1/1 16/2/1
f 17/13/4 18/12/4 22/12/4 21/13/4
f 13/13/4 14/12/4 18/12/4 17/13/4
f 16/2/1 15/1/1 19/1/1 20/2/1
f 27/1/1 23/1/1 33/1/1 35/1/1
f 24/2/1 23/1/1 27/1/1 28/2/1
f 20/2/1 19/1/1 23/1/1 24/2/1
f 19/1/5 17/13/5 21/13/5 23/1/5
f 18/11/3 20/10/3 24/10/3 22/11/3
f 26/11/6 28/10/6 27/1/6 25/13/6
f 21/13/4 25/13/4 36/13/4 34/13/4
f 22/11/3 24/10/3 28/10/3 26/11/3
f 21/13/4 22/12/4 26/12/4 25/13/4
f 29/1/5 30/13/5 32/13/5 31/1/5
f 33/1/5 34/13/5 36/13/5 35/1/5
f 23/1/2 21/13/2 34/13/2 33/1/2
f 19/1/1 15/1/1 29/1/1 31/1/1
f 17/13/6 19/1/6 31/1/6 32/13/6
f 25/13/6 27/1/6 35/1/6 36/13/6
f 13/13/4 17/13/4 32/13/4 30/13/4
f 15/1/2 13/13/2 30/13/2 29/1/2
