# Blender 4.2.2 LTS
# www.blender.org
mtllib james.mtl
o Cube
v -0.500000 0.000000 0.500000
v -0.500000 1.000000 0.500000
v -0.500000 0.000000 -0.500000
v -0.500000 1.000000 -0.500000
v 0.500000 0.000000 0.500000
v 0.500000 1.000000 0.500000
v 0.500000 0.000000 -0.500000
v 0.500000 1.000000 -0.500000
v -0.500000 0.000000 3.500000
v -0.500000 1.000000 3.500000
v 0.500000 1.000000 3.500000
v 0.500000 0.000000 3.500000
v -0.500000 0.000000 4.500000
v -0.500000 1.000000 4.500000
v 0.500000 1.000000 4.500000
v 0.500000 0.000000 4.500000
v -3.500000 0.000000 -0.500000
v -3.500000 0.000000 0.500000
v -3.500000 1.000000 0.500000
v -3.500000 1.000000 -0.500000
v -3.500000 0.000000 3.500000
v -3.500000 1.000000 3.500000
v -3.500000 0.000000 4.500000
v -3.500000 1.000000 4.500000
v -4.500000 0.000000 -0.500000
v -4.500000 0.000000 0.500000
v -4.500000 1.000000 0.500000
v -4.500000 1.000000 -0.500000
v -4.500000 0.000000 3.500000
v -4.500000 0.000000 4.500000
v -4.500000 1.000000 4.500000
v -4.500000 1.000000 3.500000
vn -0.0000 -0.0000 -1.0000
vn 1.0000 -0.0000 -0.0000
vn -1.0000 -0.0000 -0.0000
vn -0.0000 -1.0000 -0.0000
vn -0.0000 1.0000 -0.0000
vn -0.0000 -0.0000 1.0000
vt 0.625000 0.250000
vt 0.375000 0.250000
vt 0.625000 0.500000
vt 0.375000 0.500000
vt 0.625000 0.750000
vt 0.375000 0.750000
vt 0.625000 0.000000
vt 0.375000 0.000000
vt 0.125000 0.500000
vt 0.125000 0.750000
vt 0.875000 0.500000
vt 0.875000 0.750000
vt 0.625000 1.000000
vt 0.375000 1.000000
s 0
f 4/1/1 3/2/1 17/2/1 20/1/1
f 3/2/1 4/1/1 8/3/1 7/4/1
f 7/4/2 8/3/2 6/5/2 5/6/2
f 2/7/3 1/8/3 9/8/3 10/7/3
f 3/9/4 7/4/4 5/6/4 1/10/4
f 8/3/5 4/11/5 2/12/5 6/5/5
f 9/10/4 12/6/4 16/6/4 13/10/4
f 1/10/4 5/6/4 12/6/4 9/10/4
f 6/5/5 2/12/5 10/12/5 11/5/5
f 5/6/2 6/5/2 11/5/2 12/6/2
f 16/6/6 15/5/6 14/13/6 13/14/6
f 9/10/4 13/10/4 23/10/4 21/10/4
f 11/5/5 10/12/5 14/12/5 15/5/5
f 12/6/2 11/5/2 15/5/2 16/6/2
f 21/10/4 23/10/4 30/10/4 29/10/4
f 10/7/1 9/8/1 21/8/1 22/7/1
f 1/8/6 2/7/6 19/7/6 18/8/6
f 14/12/5 10/12/5 22/12/5 24/12/5
f 2/12/5 4/11/5 20/11/5 19/12/5
f 3/9/4 1/10/4 18/10/4 17/9/4
f 13/14/6 14/13/6 24/13/6 23/14/6
f 26/8/3 27/7/3 28/1/3 25/2/3
f 32/7/3 29/8/3 30/8/3 31/7/3
f 19/12/5 20/11/5 28/11/5 27/12/5
f 17/9/4 18/10/4 26/10/4 25/9/4
f 24/12/5 22/12/5 32/12/5 31/12/5
f 23/14/6 24/13/6 31/13/6 30/14/6
f 20/1/1 17/2/1 25/2/1 28/1/1
f 27/7/3 26/8/3 29/8/3 32/7/3
f 19/12/5 27/12/5 32/12/5 22/12/5
f 26/10/4 18/10/4 21/10/4 29/10/4
f 18/8/2 19/7/2 22/7/2 21/8/2
