# Blender 4.2.2 LTS
# www.blender.org
mtllib west.mtl
o west
v -0.500000 0.000000 0.500000
v -0.500000 1.000000 0.500000
v -0.500000 0.000000 -0.500000
v -0.500000 1.000000 -0.500000
v 0.500000 0.000000 0.500000
v 0.500000 1.000000 0.500000
v 0.500000 0.000000 -0.500000
v 0.500000 1.000000 -0.500000
v -1.500000 0.000000 -0.500000
v -1.500000 0.000000 0.500000
v -1.500000 1.000000 0.500000
v -1.500000 1.000000 -0.500000
v -4.500000 0.000000 -0.500000
v -4.500000 0.000000 0.500000
v -4.500000 1.000000 0.500000
v -4.500000 1.000000 -0.500000
v -0.500000 0.000000 1.500000
v -0.500000 1.000000 1.500000
v -1.500000 0.000000 1.500000
v -1.500000 1.000000 1.500000
v -0.500000 0.000000 2.500000
v -0.500000 1.000000 2.500000
v -1.500000 0.000000 2.500000
v -1.500000 1.000000 2.500000
v -0.500000 0.000000 3.500000
v -0.500000 1.000000 3.500000
v -1.500000 0.000000 3.500000
v -1.500000 1.000000 3.500000
v -0.500000 0.000000 4.500000
v -0.500000 1.000000 4.500000
v -1.500000 0.000000 4.500000
v -1.500000 1.000000 4.500000
v -2.500000 0.000000 1.500000
v -2.500000 1.000000 1.500000
v -2.500000 0.000000 2.500000
v -2.500000 1.000000 2.500000
v -4.500000 0.000000 3.500000
v -4.500000 1.000000 3.500000
v -4.500000 0.000000 4.500000
v -4.500000 1.000000 4.500000
v 0.500000 0.000000 1.500000
v 0.500000 1.000000 1.500000
v 0.500000 0.000000 2.500000
v 0.500000 1.000000 2.500000
v 0.500000 0.000000 3.500000
v 0.500000 1.000000 3.500000
v 0.500000 0.000000 4.500000
v 0.500000 1.000000 4.500000
vn -0.0000 1.0000 -0.0000
vn -0.0000 -0.0000 -1.0000
vn 1.0000 -0.0000 -0.0000
vn -0.0000 -0.0000 1.0000
vn -0.0000 -1.0000 -0.0000
vn -1.0000 -0.0000 -0.0000
vt 0.875000 0.750000
vt 0.875000 0.500000
vt 0.375000 0.250000
vt 0.625000 0.250000
vt 0.625000 0.500000
vt 0.375000 0.500000
vt 0.625000 0.750000
vt 0.375000 0.750000
vt 0.625000 1.000000
vt 0.375000 1.000000
vt 0.125000 0.500000
vt 0.125000 0.750000
vt 0.375000 0.000000
vt 0.625000 0.000000
s 0
f 2/1/1 4/2/1 12/2/1 11/1/1
f 3/3/2 4/4/2 8/5/2 7/6/2
f 7/6/3 8/5/3 6/7/3 5/8/3
f 5/8/4 6/7/4 2/9/4 1/10/4
f 3/11/5 7/6/5 5/8/5 1/12/5
f 8/5/1 4/2/1 2/1/1 6/7/1
f 12/4/2 9/3/2 13/3/2 16/4/2
f 3/11/5 1/12/5 10/12/5 9/11/5
f 4/4/2 3/3/2 9/3/2 12/4/2
f 2/1/1 11/1/1 20/1/1 18/1/1
f 14/13/6 15/14/6 16/4/6 13/3/6
f 10/10/4 11/9/4 15/9/4 14/10/4
f 11/1/1 12/2/1 16/2/1 15/1/1
f 9/11/5 10/12/5 14/12/5 13/11/5
f 18/1/1 20/1/1 24/1/1 22/1/1
f 11/9/6 10/10/6 19/10/6 20/9/6
f 10/12/5 1/12/5 17/12/5 19/12/5
f 1/10/3 2/9/3 18/9/3 17/10/3
f 23/12/5 21/12/5 25/12/5 27/12/5
f 18/1/1 22/1/1 44/1/1 42/1/1
f 19/12/5 17/12/5 21/12/5 23/12/5
f 19/12/5 23/12/5 35/12/5 33/12/5
f 26/1/1 28/1/1 32/1/1 30/1/1
f 24/9/6 23/10/6 27/10/6 28/9/6
f 22/1/1 24/1/1 28/1/1 26/1/1
f 21/10/3 22/9/3 26/9/3 25/10/3
f 29/10/4 30/9/4 32/9/4 31/10/4
f 30/9/4 29/10/4 47/10/4 48/9/4
f 27/12/5 25/12/5 29/12/5 31/12/5
f 27/12/5 31/12/5 39/12/5 37/12/5
f 34/9/6 33/10/6 35/10/6 36/9/6
f 23/10/4 24/9/4 36/9/4 35/10/4
f 20/9/2 19/10/2 33/10/2 34/9/2
f 24/1/1 20/1/1 34/1/1 36/1/1
f 38/9/6 37/10/6 39/10/6 40/9/6
f 31/10/4 32/9/4 40/9/4 39/10/4
f 28/9/2 27/10/2 37/10/2 38/9/2
f 32/1/1 28/1/1 38/1/1 40/1/1
f 41/10/3 42/9/3 44/9/3 43/10/3
f 45/10/3 46/9/3 48/9/3 47/10/3
f 17/10/2 18/9/2 42/9/2 41/10/2
f 26/1/1 30/1/1 48/1/1 46/1/1
f 25/10/2 26/9/2 46/9/2 45/10/2
f 21/12/5 17/12/5 41/12/5 43/12/5
f 29/12/5 25/12/5 45/12/5 47/12/5
f 22/9/4 21/10/4 43/10/4 44/9/4
