# Blender 4.2.2 LTS
# www.blender.org
mtllib cursor.mtl
o Plane
v -0.562500 0.000000 0.562500
v 0.562500 0.000000 0.562500
v -0.562500 0.000000 -0.562500
v 0.562500 0.000000 -0.562500
v -0.437500 0.000000 -0.437500
v -0.437500 0.000000 0.437500
v 0.437500 0.000000 0.437500
v 0.437500 0.000000 -0.437500
v -0.500000 0.062500 -0.500000
v -0.500000 0.062500 0.500000
v 0.500000 0.062500 0.500000
v 0.500000 0.062500 -0.500000
v -0.500000 -0.062500 -0.500000
v -0.500000 -0.062500 0.500000
v 0.500000 -0.062500 0.500000
v 0.500000 -0.062500 -0.500000
vn -0.7071 -0.7071 -0.0000
vn -0.7071 0.7071 -0.0000
vn -0.0000 0.7071 0.7071
vn 0.7071 0.7071 -0.0000
vn -0.0000 0.7071 -0.7071
vn -0.0000 -0.7071 0.7071
vn 0.7071 -0.7071 -0.0000
vn -0.0000 -0.7071 -0.7071
vt 0.000000 0.000000
vt 0.000000 1.000000
vt 0.062500 0.062500
vt 0.062500 0.937500
vt 0.937500 0.062500
vt 1.000000 0.000000
vt 0.937500 0.937500
vt 1.000000 1.000000
vt 0.125000 0.125000
vt 0.125000 0.875000
vt 0.875000 0.125000
vt 0.875000 0.875000
s 0
f 1/1/1 3/2/1 13/1/1 14/1/1
f 10/3/2 9/4/2 3/2/2 1/1/2
f 11/5/3 10/3/3 1/1/3 2/6/3
f 12/7/4 11/5/4 2/6/4 4/8/4
f 9/4/5 12/7/5 4/8/5 3/2/5
f 6/9/4 5/10/4 9/4/4 10/3/4
f 7/11/5 6/9/5 10/3/5 11/5/5
f 8/12/2 7/11/2 11/5/2 12/7/2
f 5/10/3 8/12/3 12/7/3 9/4/3
f 2/6/6 1/1/6 14/1/6 15/1/6
f 4/8/7 2/6/7 15/1/7 16/1/7
f 3/2/8 4/8/8 16/1/8 13/1/8
f 6/9/7 14/1/7 13/1/7 5/10/7
f 5/10/6 13/1/6 16/1/6 8/12/6
f 8/12/1 16/1/1 15/1/1 7/11/1
f 7/11/8 15/1/8 14/1/8 6/9/8
